<svg width="20" height="20" viewBox="0 0 20 20" fill="none" xmlns="http://www.w3.org/2000/svg">
<path d="M10 14.8438C9.875 14.8438 9.76042 14.8229 9.65625 14.7812C9.55208 14.7396 9.44792 14.6667 9.34375 14.5625L4.625 9.84375C4.4375 9.65625 4.34896 9.43229 4.35938 9.17188C4.36979 8.91146 4.46875 8.6875 4.65625 8.5C4.84375 8.3125 5.06771 8.21875 5.32812 8.21875C5.58854 8.21875 5.8125 8.3125 6 8.5L9.0625 11.5938V0.9375C9.0625 0.666667 9.15104 0.442708 9.32812 0.265625C9.50521 0.0885418 9.72917 0 10 0C10.2708 0 10.4948 0.0885418 10.6719 0.265625C10.849 0.442708 10.9375 0.666667 10.9375 0.9375V11.5938L14.0312 8.5C14.2188 8.3125 14.4427 8.21875 14.7031 8.21875C14.9635 8.21875 15.1875 8.3125 15.375 8.5C15.5625 8.6875 15.6562 8.91146 15.6562 9.17188C15.6562 9.43229 15.5625 9.65625 15.375 9.84375L10.6562 14.5625C10.5521 14.6667 10.4479 14.7396 10.3438 14.7812C10.2396 14.8229 10.125 14.8438 10 14.8438ZM1.875 20C1.375 20 0.9375 19.8125 0.5625 19.4375C0.1875 19.0625 0 18.625 0 18.125V14.5938C0 14.3229 0.0885418 14.099 0.265625 13.9219C0.442708 13.7448 0.666667 13.6562 0.9375 13.6562C1.20833 13.6562 1.43229 13.7448 1.60937 13.9219C1.78646 14.099 1.875 14.3229 1.875 14.5938V18.125H18.125V14.5938C18.125 14.3229 18.2135 14.099 18.3906 13.9219C18.5677 13.7448 18.7917 13.6562 19.0625 13.6562C19.3333 13.6562 19.5573 13.7448 19.7344 13.9219C19.9115 14.099 20 14.3229 20 14.5938V18.125C20 18.625 19.8125 19.0625 19.4375 19.4375C19.0625 19.8125 18.625 20 18.125 20H1.875Z" fill="#D72630"/>
</svg>
