<svg width="26" height="20" viewBox="0 0 26 20" fill="none" xmlns="http://www.w3.org/2000/svg">
<path fill-rule="evenodd" clip-rule="evenodd" d="M25.1521 0.104492H0.797192L12.8165 11.7399L25.1521 0.104492ZM0 0.995082V19.3754C1.65983 17.7936 3.49914 16.0495 5.15434 14.4965C6.49771 13.236 7.72212 12.0991 8.63151 11.2764C9.04689 10.9007 9.40008 10.5873 9.67033 10.3566L0 0.995082ZM1.18461 19.8955H25.0276L15.2599 11.0755L13.2514 12.97L12.805 13.3911L12.3644 12.9646L10.5285 11.1873C10.27 11.4073 9.91939 11.718 9.49462 12.1023C8.59353 12.9174 7.37551 14.0483 6.03353 15.3075C4.47961 16.7655 2.76257 18.3927 1.18461 19.8955ZM26 19.1684V0.944975L16.1294 10.2554L26 19.1684Z" fill="#D72630"/>
</svg>
