<svg width="25" height="24" viewBox="0 0 25 24" fill="none" xmlns="http://www.w3.org/2000/svg">
<path d="M10.075 9.125V14.875C10.075 15.175 10.2042 15.4 10.4625 15.55C10.7208 15.7 10.975 15.6917 11.225 15.525L15.75 12.625C15.9833 12.475 16.1 12.2667 16.1 12C16.1 11.7333 15.9833 11.525 15.75 11.375L11.225 8.475C10.975 8.30833 10.7208 8.3 10.4625 8.45C10.2042 8.6 10.075 8.825 10.075 9.125ZM12.5 22C11.1333 22 9.84167 21.7375 8.625 21.2125C7.40833 20.6875 6.34583 19.9708 5.4375 19.0625C4.52917 18.1542 3.8125 17.0917 3.2875 15.875C2.7625 14.6583 2.5 13.3667 2.5 12C2.5 10.6333 2.7625 9.34167 3.2875 8.125C3.8125 6.90833 4.52917 5.84583 5.4375 4.9375C6.34583 4.02917 7.40833 3.3125 8.625 2.7875C9.84167 2.2625 11.1333 2 12.5 2C13.8667 2 15.1583 2.2625 16.375 2.7875C17.5917 3.3125 18.6542 4.02917 19.5625 4.9375C20.4708 5.84583 21.1875 6.90833 21.7125 8.125C22.2375 9.34167 22.5 10.6333 22.5 12C22.5 13.3667 22.2375 14.6583 21.7125 15.875C21.1875 17.0917 20.4708 18.1542 19.5625 19.0625C18.6542 19.9708 17.5917 20.6875 16.375 21.2125C15.1583 21.7375 13.8667 22 12.5 22ZM12.5 20.5C14.8333 20.5 16.8333 19.6667 18.5 18C20.1667 16.3333 21 14.3333 21 12C21 9.66667 20.1667 7.66667 18.5 6C16.8333 4.33333 14.8333 3.5 12.5 3.5C10.1667 3.5 8.16667 4.33333 6.5 6C4.83333 7.66667 4 9.66667 4 12C4 14.3333 4.83333 16.3333 6.5 18C8.16667 19.6667 10.1667 20.5 12.5 20.5Z" fill="#333333"/>
</svg>
